<?xml version="1.0" encoding="UTF-8"?>
<svg width="682px" height="524px" viewBox="0 0 682 524" version="1.1" xmlns="http://www.w3.org/2000/svg" xmlns:xlink="http://www.w3.org/1999/xlink">
    <!-- Generator: Sketch 57.1 (83088) - https://sketch.com -->
    <title>Group</title>
    <desc>Created with Sketch.</desc>
    <defs>
        <path d="M261.907,0.186 C117.26,0.186 0,117.446 0,262.093 L0,262.093 C0,406.74 117.26,524 261.907,524 L261.907,524 C398.023,524 509.873,420.16 522.595,287.377 L522.595,287.377 C509.167,286.737 498.469,275.679 498.469,262.093 L498.469,262.093 C498.469,248.506 509.167,237.449 522.595,236.808 L522.595,236.808 C509.873,104.027 398.023,0.186 261.907,0.186 Z M369.514,201.346 C369.514,194.801 374.481,189.676 381.025,189.676 L381.025,189.676 C387.569,189.676 392.693,194.801 392.693,201.346 L392.693,201.346 C392.693,207.889 387.569,212.856 381.025,212.856 L381.025,212.856 C374.481,212.856 369.514,207.889 369.514,201.346 L369.514,201.346 Z M405.087,265.207 C405.087,242.107 421.723,225.471 442.853,225.471 L442.853,225.471 C453.575,225.471 461.38,229.886 466.584,236.588 L466.584,236.588 L466.584,227.442 L483.062,227.442 L483.062,302.973 L466.584,302.973 L466.584,293.906 C461.38,300.607 453.575,304.944 442.853,304.944 L442.853,304.944 C421.723,304.944 405.087,288.308 405.087,265.207 L405.087,265.207 Z M283.623,265.207 C283.623,241.555 298.998,225.471 321.232,225.471 L321.232,225.471 C342.361,225.471 356.868,241.555 356.947,265.129 L356.947,265.129 C356.947,267.257 356.789,269.385 356.631,271.278 L356.631,271.278 L300.811,271.278 C303.018,284.839 312.558,290.516 323.281,290.516 L323.281,290.516 C330.85,290.516 338.892,287.52 345.12,282.553 L345.12,282.553 L353.32,294.3 C344.095,302.184 333.689,304.944 322.256,304.944 L322.256,304.944 C299.628,304.944 283.623,289.176 283.623,265.207 L283.623,265.207 Z M234.159,225.471 C255.29,225.471 271.925,242.107 271.925,265.207 L271.925,265.207 C271.925,288.308 255.29,304.944 234.159,304.944 L234.159,304.944 C223.438,304.944 215.71,300.607 210.507,293.984 L210.507,293.984 L210.507,334.51 L194.029,334.51 L194.029,227.442 L210.507,227.442 L210.507,236.43 C215.71,229.807 223.438,225.471 234.159,225.471 L234.159,225.471 Z M96.36,265.207 C96.36,242.58 113.627,225.471 136.965,225.471 L136.965,225.471 C160.302,225.471 177.647,242.58 177.647,265.207 L177.647,265.207 C177.647,287.835 160.302,304.944 136.965,304.944 L136.965,304.944 C113.627,304.944 96.36,287.835 96.36,265.207 L96.36,265.207 Z M21.478,265.207 C21.478,242.58 37.167,225.471 61.214,225.471 L61.214,225.471 C72.489,225.471 82.739,229.57 89.44,237.534 L89.44,237.534 L78.875,248.808 C73.593,243.841 67.995,241.002 60.742,241.002 L60.742,241.002 C48.048,241.002 38.429,250.937 38.429,265.207 L38.429,265.207 C38.429,279.478 48.048,289.411 60.742,289.411 L60.742,289.411 C67.995,289.411 74.461,286.021 79.269,281.527 L79.269,281.527 L89.44,292.881 C82.58,300.844 72.489,304.944 61.214,304.944 L61.214,304.944 C37.167,304.944 21.478,287.835 21.478,265.207 L21.478,265.207 Z M372.825,302.973 L389.382,302.973 L389.382,227.442 L372.825,227.442 L372.825,302.973 Z M300.89,258.742 L340.075,258.742 C338.261,246.994 331.402,240.135 320.916,240.135 L320.916,240.135 C309.168,240.135 302.624,247.704 300.89,258.742 L300.89,258.742 Z M422.038,265.207 C422.038,278.453 430.632,289.411 444.824,289.411 L444.824,289.411 C458.464,289.411 467.609,279.005 467.609,265.207 L467.609,265.207 C467.609,251.41 458.464,241.002 444.824,241.002 L444.824,241.002 C430.632,241.002 422.038,251.962 422.038,265.207 L422.038,265.207 Z M209.403,265.207 C209.403,279.005 218.549,289.411 232.188,289.411 L232.188,289.411 C246.38,289.411 254.974,278.453 254.974,265.207 L254.974,265.207 C254.974,251.962 246.38,241.002 232.188,241.002 L232.188,241.002 C218.549,241.002 209.403,251.41 209.403,265.207 L209.403,265.207 Z M113.312,265.207 C113.312,279.478 123.483,289.411 136.965,289.411 L136.965,289.411 C150.447,289.411 160.696,279.478 160.696,265.207 L160.696,265.207 C160.696,250.937 150.447,241.002 136.965,241.002 L136.965,241.002 C123.483,241.002 113.312,250.937 113.312,265.207 L113.312,265.207 Z" id="path-1"></path>
        <linearGradient x1="0.351034628%" y1="50%" x2="100%" y2="50%" id="linearGradient-3">
            <stop stop-color="#0087FF" offset="0%"></stop>
            <stop stop-color="#3FD860" offset="100%"></stop>
        </linearGradient>
        <polygon id="path-4" points="0.1601 0.7109 132.924 0.7109 132.924 133.4749 0.1601 133.4749"></polygon>
    </defs>
    <g id="Page-1" stroke="none" stroke-width="1" fill="none" fill-rule="evenodd">
        <g id="Group" transform="translate(0.000000, -0.186000)">
            <polygon id="Fill-1" fill="#FEFEFE" points="17.508 335.294 487.626 335.294 487.626 186.625 17.508 186.625"></polygon>
            <g id="Group-4">
                <mask id="mask-2" fill="white">
                    <use xlink:href="#path-1"></use>
                </mask>
                <g id="Clip-3"></g>
                <path d="M261.907,0.186 C117.26,0.186 0,117.446 0,262.093 L0,262.093 C0,406.74 117.26,524 261.907,524 L261.907,524 C398.023,524 509.873,420.16 522.595,287.377 L522.595,287.377 C509.167,286.737 498.469,275.679 498.469,262.093 L498.469,262.093 C498.469,248.506 509.167,237.449 522.595,236.808 L522.595,236.808 C509.873,104.027 398.023,0.186 261.907,0.186 Z M369.514,201.346 C369.514,194.801 374.481,189.676 381.025,189.676 L381.025,189.676 C387.569,189.676 392.693,194.801 392.693,201.346 L392.693,201.346 C392.693,207.889 387.569,212.856 381.025,212.856 L381.025,212.856 C374.481,212.856 369.514,207.889 369.514,201.346 L369.514,201.346 Z M405.087,265.207 C405.087,242.107 421.723,225.471 442.853,225.471 L442.853,225.471 C453.575,225.471 461.38,229.886 466.584,236.588 L466.584,236.588 L466.584,227.442 L483.062,227.442 L483.062,302.973 L466.584,302.973 L466.584,293.906 C461.38,300.607 453.575,304.944 442.853,304.944 L442.853,304.944 C421.723,304.944 405.087,288.308 405.087,265.207 L405.087,265.207 Z M283.623,265.207 C283.623,241.555 298.998,225.471 321.232,225.471 L321.232,225.471 C342.361,225.471 356.868,241.555 356.947,265.129 L356.947,265.129 C356.947,267.257 356.789,269.385 356.631,271.278 L356.631,271.278 L300.811,271.278 C303.018,284.839 312.558,290.516 323.281,290.516 L323.281,290.516 C330.85,290.516 338.892,287.52 345.12,282.553 L345.12,282.553 L353.32,294.3 C344.095,302.184 333.689,304.944 322.256,304.944 L322.256,304.944 C299.628,304.944 283.623,289.176 283.623,265.207 L283.623,265.207 Z M234.159,225.471 C255.29,225.471 271.925,242.107 271.925,265.207 L271.925,265.207 C271.925,288.308 255.29,304.944 234.159,304.944 L234.159,304.944 C223.438,304.944 215.71,300.607 210.507,293.984 L210.507,293.984 L210.507,334.51 L194.029,334.51 L194.029,227.442 L210.507,227.442 L210.507,236.43 C215.71,229.807 223.438,225.471 234.159,225.471 L234.159,225.471 Z M96.36,265.207 C96.36,242.58 113.627,225.471 136.965,225.471 L136.965,225.471 C160.302,225.471 177.647,242.58 177.647,265.207 L177.647,265.207 C177.647,287.835 160.302,304.944 136.965,304.944 L136.965,304.944 C113.627,304.944 96.36,287.835 96.36,265.207 L96.36,265.207 Z M21.478,265.207 C21.478,242.58 37.167,225.471 61.214,225.471 L61.214,225.471 C72.489,225.471 82.739,229.57 89.44,237.534 L89.44,237.534 L78.875,248.808 C73.593,243.841 67.995,241.002 60.742,241.002 L60.742,241.002 C48.048,241.002 38.429,250.937 38.429,265.207 L38.429,265.207 C38.429,279.478 48.048,289.411 60.742,289.411 L60.742,289.411 C67.995,289.411 74.461,286.021 79.269,281.527 L79.269,281.527 L89.44,292.881 C82.58,300.844 72.489,304.944 61.214,304.944 L61.214,304.944 C37.167,304.944 21.478,287.835 21.478,265.207 L21.478,265.207 Z M372.825,302.973 L389.382,302.973 L389.382,227.442 L372.825,227.442 L372.825,302.973 Z M300.89,258.742 L340.075,258.742 C338.261,246.994 331.402,240.135 320.916,240.135 L320.916,240.135 C309.168,240.135 302.624,247.704 300.89,258.742 L300.89,258.742 Z M422.038,265.207 C422.038,278.453 430.632,289.411 444.824,289.411 L444.824,289.411 C458.464,289.411 467.609,279.005 467.609,265.207 L467.609,265.207 C467.609,251.41 458.464,241.002 444.824,241.002 L444.824,241.002 C430.632,241.002 422.038,251.962 422.038,265.207 L422.038,265.207 Z M209.403,265.207 C209.403,279.005 218.549,289.411 232.188,289.411 L232.188,289.411 C246.38,289.411 254.974,278.453 254.974,265.207 L254.974,265.207 C254.974,251.962 246.38,241.002 232.188,241.002 L232.188,241.002 C218.549,241.002 209.403,251.41 209.403,265.207 L209.403,265.207 Z M113.312,265.207 C113.312,279.478 123.483,289.411 136.965,289.411 L136.965,289.411 C150.447,289.411 160.696,279.478 160.696,265.207 L160.696,265.207 C160.696,250.937 150.447,241.002 136.965,241.002 L136.965,241.002 C123.483,241.002 113.312,250.937 113.312,265.207 L113.312,265.207 Z" id="Fill-2" fill="url(#linearGradient-3)" mask="url(#mask-2)"></path>
            </g>
            <g id="Group-7" transform="translate(549.000000, 195.000000)">
                <mask id="mask-5" fill="white">
                    <use xlink:href="#path-4"></use>
                </mask>
                <g id="Clip-6"></g>
                <path d="M66.5421,133.4749 C103.2041,133.4749 132.9241,103.7549 132.9241,67.0929 C132.9241,30.4309 103.2041,0.7109 66.5421,0.7109 C29.8801,0.7109 0.1601,30.4309 0.1601,67.0929 C0.1601,103.7549 29.8801,133.4749 66.5421,133.4749" id="Fill-5" fill="#23CD5A" mask="url(#mask-5)"></path>
            </g>
        </g>
    </g>
</svg>